<svg width="113" height="59" viewBox="0 0 113 59" fill="none" xmlns="http://www.w3.org/2000/svg">
<path d="M45.6781 30.3758C45.4132 30.3758 45.152 30.2871 44.9433 30.1208L31.522 19.5616C31.2333 19.3341 31.0684 18.9942 31.0684 18.628C31.0684 18.2605 31.2333 17.9206 31.5208 17.6919L44.9433 7.13511C45.152 6.96889 45.4132 6.87891 45.6781 6.87891C46.0443 6.87891 46.3868 7.04388 46.6117 7.33257C46.8079 7.58253 46.8967 7.89372 46.8592 8.20741C46.8217 8.5236 46.6617 8.8048 46.413 9.00101L34.1815 18.628L46.413 28.2512C46.6617 28.4499 46.8217 28.7311 46.8592 29.0448C46.8967 29.361 46.8079 29.6709 46.6117 29.9221C46.3868 30.2096 46.0443 30.3758 45.6781 30.3758Z" fill="#00B1FF"/>
<mask id="mask0_3779_4775" style="mask-type:luminance" maskUnits="userSpaceOnUse" x="30" y="6" width="18" height="26">
<path d="M30.5371 6.22266H47.6539V31.178H30.5371V6.22266Z" fill="white"/>
</mask>
<g mask="url(#mask0_3779_4775)">
<path d="M45.6784 6.375C45.2998 6.375 44.9298 6.50373 44.6311 6.73743L31.2086 17.298C30.7975 17.6229 30.5625 18.1078 30.5625 18.6302C30.5625 19.1526 30.7987 19.6388 31.2086 19.9625L44.6311 30.5218C44.9273 30.7542 45.2998 30.8842 45.6784 30.8842C46.2033 30.8842 46.6883 30.6467 47.0107 30.2356C47.2919 29.8819 47.4156 29.4382 47.3631 28.9883C47.3081 28.5396 47.0832 28.136 46.727 27.8573L34.9992 18.6302L46.727 9.40319C47.0832 9.12074 47.3081 8.72081 47.3631 8.2709C47.4156 7.82098 47.2919 7.37731 47.0107 7.02113C46.6883 6.60996 46.2008 6.375 45.6784 6.375ZM45.6784 7.38856C45.8809 7.38856 46.0809 7.4773 46.2146 7.64726C46.4496 7.94471 46.3971 8.37463 46.1021 8.60709L33.362 18.6302L46.1021 28.6521C46.3971 28.8858 46.4496 29.3145 46.2146 29.6107C46.0809 29.7832 45.8809 29.8719 45.6784 29.8719C45.531 29.8719 45.3823 29.8256 45.2573 29.7257L31.8348 19.1664C31.671 19.0364 31.5748 18.8389 31.5748 18.6302C31.5748 18.419 31.671 18.2228 31.8348 18.0928L45.2573 7.53354C45.381 7.4348 45.531 7.38856 45.6784 7.38856Z" fill="#040238"/>
</g>
<path d="M63.3867 30.3758C63.0206 30.3758 62.6806 30.2096 62.4507 29.9221C62.0457 29.4072 62.1357 28.6586 62.6519 28.2512L74.8859 18.628L62.6519 9.00101C62.1357 8.59609 62.0457 7.84748 62.4507 7.33257C62.6806 7.04388 63.0206 6.87891 63.3867 6.87891C63.6517 6.87891 63.9129 6.96889 64.1216 7.13511L77.5441 17.6919C77.8316 17.9206 77.9953 18.2605 77.9953 18.628C77.9953 18.9942 77.8316 19.3341 77.5429 19.5616L64.1216 30.1208C63.9129 30.2871 63.6517 30.3758 63.3867 30.3758Z" fill="#00B1FF"/>
<mask id="mask1_3779_4775" style="mask-type:luminance" maskUnits="userSpaceOnUse" x="61" y="6" width="18" height="26">
<path d="M61.4082 6.22266H78.525V31.178H61.4082V6.22266Z" fill="white"/>
</mask>
<g mask="url(#mask1_3779_4775)">
<path d="M63.3844 6.375C62.862 6.375 62.3759 6.60996 62.0522 7.02113C61.4735 7.75599 61.601 8.8233 62.3359 9.40319L74.0637 18.6302L62.3359 27.8573C61.601 28.4347 61.4735 29.5032 62.0522 30.2356C62.3759 30.6467 62.862 30.8842 63.3844 30.8842C63.7631 30.8842 64.1331 30.7542 64.4317 30.5218L77.8543 19.9625C78.2654 19.6388 78.4991 19.1526 78.4991 18.6302C78.4991 18.1078 78.2654 17.6229 77.8555 17.298L64.433 6.73743C64.1356 6.50373 63.7631 6.375 63.3844 6.375ZM63.3844 7.38856C63.5319 7.38856 63.6819 7.4348 63.8056 7.53354L77.2281 18.0928C77.3918 18.2228 77.4868 18.419 77.4868 18.6302C77.4868 18.8389 77.3918 19.0364 77.2281 19.1664L63.8056 29.7257C63.6819 29.8256 63.5319 29.8719 63.3844 29.8719C63.182 29.8719 62.982 29.7832 62.8483 29.6107C62.6146 29.3145 62.6658 28.8858 62.9608 28.6521L75.7009 18.6302L62.9608 8.60709C62.6658 8.37463 62.6146 7.94471 62.8483 7.64726C62.982 7.4773 63.1845 7.38856 63.3844 7.38856Z" fill="#040238"/>
</g>
<path d="M47.8616 36.7505C47.7142 36.7505 47.5704 36.7218 47.433 36.6693C47.1368 36.5531 46.9018 36.3306 46.7743 36.0407C46.6444 35.7495 46.6394 35.4283 46.7518 35.1321L59.8607 1.26837C60.0369 0.814709 60.483 0.509766 60.968 0.509766C61.1167 0.509766 61.2616 0.53851 61.4004 0.591001C62.009 0.827207 62.3152 1.51833 62.0777 2.12946L48.9714 35.9907C48.7952 36.4443 48.3478 36.7505 47.8616 36.7505Z" fill="#00B1FF"/>
<mask id="mask2_3779_4775" style="mask-type:luminance" maskUnits="userSpaceOnUse" x="46" y="0" width="17" height="38">
<path d="M46.0527 0H62.6896V37.1931H46.0527V0Z" fill="white"/>
</mask>
<g mask="url(#mask2_3779_4775)">
<path d="M60.9681 0.00195312C60.2745 0.00195312 59.6383 0.439372 59.3896 1.0855L46.2808 34.9467C46.1183 35.3691 46.1283 35.8291 46.3108 36.244C46.4958 36.6576 46.827 36.9776 47.2506 37.1388C47.4468 37.2163 47.6518 37.255 47.8618 37.255C48.5566 37.255 49.1928 36.8189 49.444 36.1715L62.5503 2.31027C62.8877 1.43669 62.4528 0.453119 61.5805 0.116932C61.3855 0.040696 61.1793 0.00195312 60.9681 0.00195312ZM60.9681 1.01427C61.0518 1.01427 61.1343 1.03051 61.2155 1.06051C61.568 1.19673 61.7417 1.59166 61.6067 1.94409L48.4979 35.8053C48.3942 36.0765 48.1355 36.2415 47.8618 36.2415C47.7793 36.2415 47.6955 36.2277 47.6156 36.1952C47.2631 36.0603 47.0882 35.6628 47.2256 35.3129L60.3332 1.45168C60.4382 1.18048 60.6956 1.01427 60.9681 1.01427Z" fill="#040238"/>
</g>
<path d="M0 39.5625H4.3342C5.3665 39.5625 6.18135 39.785 6.77874 40.2274C7.37863 40.6673 7.67858 41.2772 7.67858 42.057C7.67858 42.6169 7.5211 43.0943 7.20866 43.4868C6.89497 43.8804 6.4688 44.1441 5.9289 44.2766C6.59128 44.3941 7.11368 44.6753 7.49361 45.1215C7.87354 45.5651 8.0635 46.125 8.0635 46.8012C8.0635 47.6547 7.73981 48.3246 7.09368 48.8108C6.45005 49.2944 5.56397 49.5356 4.43418 49.5356H0V39.5625ZM1.68469 41.0572V43.6917H4.24921C4.77911 43.6917 5.19529 43.5743 5.49898 43.3368C5.80517 43.1006 5.95889 42.7744 5.95889 42.357C5.95889 41.9371 5.80892 41.6159 5.50898 41.3922C5.20903 41.1697 4.78911 41.0572 4.24921 41.0572H1.68469ZM1.68469 45.1765V48.0409H4.24921C4.91159 48.0409 5.42524 47.9159 5.78893 47.666C6.15511 47.4135 6.33882 47.0536 6.33882 46.5862C6.33882 46.15 6.15386 45.8063 5.78393 45.5564C5.414 45.3039 4.90159 45.1765 4.24921 45.1765H1.68469Z" fill="#00B0FF"/>
<path d="M12.9659 48.0109H17.2801V49.5356H11.2812V39.5625H12.9659V48.0109Z" fill="#00B0FF"/>
<path d="M28.5964 39.5625V45.4014C28.5964 46.7049 28.2114 47.731 27.4416 48.4808C26.6717 49.2307 25.6119 49.6056 24.2622 49.6056C22.9149 49.6056 21.8539 49.2307 21.0778 48.4808C20.3041 47.731 19.918 46.7049 19.918 45.4014V39.5625H21.6027V45.4014C21.6027 46.2388 21.8401 46.8961 22.3175 47.376C22.7974 47.856 23.4498 48.0959 24.2772 48.0959C25.097 48.0959 25.7419 47.8597 26.2118 47.386C26.6817 46.9099 26.9167 46.2488 26.9167 45.4014V39.5625H28.5964Z" fill="#00B0FF"/>
<path d="M39.3541 41.0722H33.9152V43.7667H38.7843V45.2764H33.9152V48.0259H39.5241V49.5356H32.2305V39.5625H39.3541V41.0722Z" fill="#00B0FF"/>
<path d="M58.2481 49.5356H56.6984L56.6834 42.082L53.534 48.4958H52.4342L49.2898 42.082V49.5356H47.7051V39.5625H49.6997L52.9941 46.1863L56.2685 39.5625H58.2481V49.5356Z" fill="black"/>
<path d="M68.548 47.2861H63.519L62.5641 49.5356H60.8145L65.2186 39.5625H66.9383L71.2975 49.5356H69.5028L68.548 47.2861ZM67.9081 45.7863L66.0285 41.3572L64.1488 45.7863H67.9081Z" fill="black"/>
<path d="M80.1745 49.5356L78.3499 46.5162C78.2524 46.5262 78.1012 46.5312 77.895 46.5312H75.5304V49.5356H73.8457V39.5625H77.895C79.1672 39.5625 80.1545 39.8599 80.8544 40.4523C81.5568 41.046 81.9092 41.8846 81.9092 42.9669C81.9092 43.7667 81.7305 44.4416 81.3743 44.9915C81.0206 45.5414 80.5107 45.9451 79.8446 46.2013L82.0842 49.5356H80.1745ZM75.5304 45.0215H77.895C79.5072 45.0215 80.3145 44.3516 80.3145 43.0119C80.3145 41.7196 79.5072 41.0722 77.895 41.0722H75.5304V45.0215Z" fill="black"/>
<path d="M89.8203 49.5356H88.0856L84.1113 39.5625H85.921L88.9954 47.671L92.0998 39.5625H93.8545L89.8203 49.5356Z" fill="black"/>
<path d="M103.555 41.0722H98.1163V43.7667H102.985V45.2764H98.1163V48.0259H103.725V49.5356H96.4316V39.5625H103.555V41.0722Z" fill="black"/>
<path d="M108.687 48.0109H113.001V49.5356H107.002V39.5625H108.687V48.0109Z" fill="black"/>
<path d="M30.0822 55.5034H28.9824V58.4479H28.3975V55.5034H27.3027V54.9785H30.0822V55.5034Z" fill="#00B1FF"/>
<path d="M34.6768 55.5034H32.7822V56.4432H34.4768V56.9681H32.7822V57.923H34.7368V58.4479H32.1973V54.9785H34.6768V55.5034Z" fill="#00B1FF"/>
<path d="M38.599 54.9648C38.8452 54.9648 39.0839 55.0136 39.3138 55.1098C39.5463 55.2035 39.7487 55.3335 39.9187 55.4997L39.5788 55.9297C39.4513 55.7934 39.3013 55.6847 39.1289 55.6047C38.9589 55.5247 38.7852 55.4847 38.609 55.4847C38.2615 55.4847 37.9691 55.6035 37.7291 55.8397C37.4917 56.0771 37.3742 56.3646 37.3742 56.7045C37.3742 57.0482 37.4917 57.3382 37.7291 57.5744C37.9691 57.8118 38.2615 57.9293 38.609 57.9293C38.9689 57.9293 39.2913 57.7931 39.5788 57.5194L39.9237 57.9043C39.7437 58.0818 39.535 58.2217 39.2988 58.3242C39.0614 58.4242 38.8214 58.4742 38.579 58.4742C38.0716 58.4742 37.6454 58.3067 37.2992 57.9693C36.9518 57.6293 36.7793 57.2094 36.7793 56.7095C36.7793 56.2196 36.9543 55.8072 37.3042 55.4697C37.6566 55.1336 38.0891 54.9648 38.599 54.9648Z" fill="#00B1FF"/>
<path d="M45.1403 58.4479H44.5554V57.0131H42.7158V58.4479H42.1309V54.9785H42.7158V56.4882H44.5554V54.9785H45.1403V58.4479Z" fill="#00B1FF"/>
<path d="M50.6716 58.4479H50.0967L48.247 55.9633V58.4479H47.6621V54.9785H48.237L50.0967 57.4731V54.9785H50.6716V58.4479Z" fill="#00B1FF"/>
<path d="M53.444 55.4697C53.7964 55.1336 54.2313 54.9648 54.7487 54.9648C55.2686 54.9648 55.7048 55.1336 56.0585 55.4697C56.4109 55.8072 56.5884 56.2234 56.5884 56.7195C56.5884 57.2132 56.4109 57.6293 56.0585 57.9693C55.7048 58.3067 55.2686 58.4742 54.7487 58.4742C54.2313 58.4742 53.7964 58.3067 53.444 57.9693C53.0903 57.6293 52.9141 57.2132 52.9141 56.7195C52.9141 56.2234 53.0903 55.8072 53.444 55.4697ZM54.7537 55.4897C54.41 55.4897 54.1163 55.6085 53.8739 55.8447C53.6302 56.0821 53.509 56.3721 53.509 56.7145C53.509 57.0582 53.6302 57.3494 53.8739 57.5894C54.1201 57.8293 54.4138 57.9493 54.7537 57.9493C55.0937 57.9493 55.3836 57.8293 55.6236 57.5894C55.866 57.3494 55.9885 57.0582 55.9885 56.7145C55.9885 56.3721 55.866 56.0821 55.6236 55.8447C55.3836 55.6085 55.0937 55.4897 54.7537 55.4897Z" fill="#00B1FF"/>
<path d="M59.415 57.918H60.9147V58.4479H58.8301V54.9785H59.415V57.918Z" fill="#00B1FF"/>
<path d="M63.3326 55.4678C63.6851 55.1316 64.12 54.9629 64.6374 54.9629C65.1573 54.9629 65.5935 55.1316 65.9472 55.4678C66.2996 55.8052 66.4771 56.2214 66.4771 56.7176C66.4771 57.2112 66.2996 57.6274 65.9472 57.9673C65.5935 58.3048 65.1573 58.4722 64.6374 58.4722C64.12 58.4722 63.6851 58.3048 63.3326 57.9673C62.979 57.6274 62.8027 57.2112 62.8027 56.7176C62.8027 56.2214 62.979 55.8052 63.3326 55.4678ZM64.6424 55.4878C64.2987 55.4878 64.005 55.6065 63.7626 55.8427C63.5189 56.0802 63.3976 56.3701 63.3976 56.7126C63.3976 57.0563 63.5189 57.3474 63.7626 57.5874C64.0088 57.8274 64.3025 57.9473 64.6424 57.9473C64.9823 57.9473 65.2723 57.8274 65.5122 57.5874C65.7547 57.3474 65.8772 57.0563 65.8772 56.7126C65.8772 56.3701 65.7547 56.0802 65.5122 55.8427C65.2723 55.6065 64.9823 55.4878 64.6424 55.4878Z" fill="#00B1FF"/>
<path d="M71.0931 56.7445H71.603V58.0243C71.423 58.158 71.2106 58.2667 70.9681 58.3492C70.7282 58.4329 70.4895 58.4742 70.2533 58.4742C69.7434 58.4742 69.3109 58.3067 68.9585 57.9693C68.6086 57.6293 68.4336 57.2132 68.4336 56.7195C68.4336 56.2234 68.6111 55.8072 68.9685 55.4697C69.3247 55.1336 69.7646 54.9648 70.2882 54.9648C70.5345 54.9648 70.7744 55.0098 71.0081 55.0998C71.2443 55.1873 71.4493 55.3035 71.623 55.4498L71.2881 55.8847C71.0044 55.6185 70.6707 55.4847 70.2882 55.4847C69.9346 55.4847 69.6359 55.6047 69.3934 55.8447C69.1497 56.0821 69.0285 56.3721 69.0285 56.7145C69.0285 57.062 69.1497 57.3544 69.3934 57.5944C69.6396 57.8318 69.9396 57.9493 70.2932 57.9493C70.5632 57.9493 70.8294 57.8693 71.0931 57.7093V56.7445Z" fill="#00B1FF"/>
<path d="M74.6279 58.4479H74.043V54.9785H74.6279V58.4479Z" fill="#00B1FF"/>
<path d="M79.6299 55.5034H77.7353V56.4432H79.43V56.9681H77.7353V57.923H79.6899V58.4479H77.1504V54.9785H79.6299V55.5034Z" fill="#00B1FF"/>
<path d="M83.162 54.9531C83.6119 54.9531 84.0168 55.0731 84.3768 55.3131L84.1318 55.828C83.7781 55.6118 83.4394 55.503 83.117 55.503C82.9433 55.503 82.8046 55.5355 82.7021 55.598C82.6021 55.6617 82.5521 55.7517 82.5521 55.868C82.5521 55.9817 82.5983 56.0804 82.6921 56.1629C82.7846 56.2429 82.8995 56.3029 83.037 56.3429C83.177 56.3804 83.327 56.4266 83.4869 56.4828C83.6494 56.5403 83.7994 56.6016 83.9368 56.6678C84.0768 56.7315 84.1918 56.8315 84.2818 56.9678C84.3743 57.1052 84.4218 57.2714 84.4218 57.4677C84.4218 57.7714 84.2993 58.0151 84.0568 58.1975C83.8131 58.3775 83.4982 58.4675 83.112 58.4675C82.8483 58.4675 82.5921 58.42 82.3421 58.3225C82.0947 58.2225 81.8797 58.0875 81.6973 57.9176L81.9472 57.4127C82.1234 57.5726 82.3172 57.6976 82.5271 57.7876C82.7371 57.8751 82.9345 57.9176 83.122 57.9176C83.3282 57.9176 83.4882 57.8813 83.6019 57.8076C83.7144 57.7314 83.7719 57.6276 83.7719 57.4977C83.7719 57.3777 83.7244 57.2777 83.6319 57.1977C83.5382 57.1152 83.4219 57.0552 83.282 57.0177C83.1445 56.9815 82.9945 56.9365 82.8321 56.8828C82.6721 56.8265 82.5221 56.7678 82.3821 56.7078C82.2447 56.6453 82.1297 56.5466 82.0372 56.4129C81.9435 56.2766 81.8972 56.1129 81.8972 55.9229C81.8972 55.6268 82.0122 55.3918 82.2422 55.2181C82.4746 55.0419 82.7821 54.9531 83.162 54.9531Z" fill="#00B1FF"/>
<path d="M0.802734 57.1289H25.6281" stroke="white" stroke-width="2"/>
<path d="M87.1641 57.1289H111.989" stroke="white" stroke-width="2"/>
</svg>
